#!OML:ASF E:/inclinewalkrobotboard/Project1/Captureday1/Session1/subject1.ASF
:FULLY-SPECIFIED
:DEGREES
51
root 0 0 0 -2.3743906689492347 -1.2489318360066861 2.3428820473463756
lowerback 10.451199261971965 -0.9141815752399632 -3.896293033024106
upperback 0.5923371064460633 -1.6130180343619884 1.1623991408195578
thorax -5.182031200105837 -0.6924757076823873 3.636653808700083
lowerneck -16.6079338046313 -2.333164842432471 -2.049855386688706
upperneck 19.054984989706583 -2.671217176963187 -0.01284918235292798
head 8.698171438997557 -1.3981459299253973 7.753894314854737E-5
rclavicle -6.314557561978918E-16 -3.302950659657283E-16
rhumerus -34.53559679554506 -22.290145213376285 -78.52783852321141
rradius 20.015514985368767
rwrist 7.040614150432487
rhand -18.03326768292061 25.576295032199404
rfingers 7.125020000000025
rthumb 8.233844261390736 -4.253692707850668
lclavicle -4.1504778063703645E-16 -1.0735925094423125E-15
lhumerus -28.987076697483218 -0.9095680205074349 79.72549120448338
lradius 29.88877983733306
lwrist 6.614337244257106
lhand -27.68651199417826 25.808174682961624
lfingers 7.125020000000004
lthumb -1.0989795650806151 55.80454160298453
rfemur -34.82118864165587 0.7399763250807092 17.64903500646172
rtibia 46.537448633554746
rfoot -7.3248939579628205 -9.943733003910076
rtoes -0.25594420188892975
lfemur 6.486425896816656 -2.9196938388973837 -29.02858426883785
ltibia 20.049288283519225
lfoot -18.66318131917679 0.656725711133209
ltoes -1.4576264701135493
52
root 0 0 0 -1.36882296077695 -0.08167772819995722 2.744836549825561
lowerback 10.596758993252205 -1.2687311662488256 -4.575685834778146
upperback 0.607771278062567 -2.13034416806493 1.3965706357457421
thorax -5.1565778646178035 -0.9350291179575769 4.316027537491868
lowerneck -17.302962175192672 -2.497275843783978 -2.2000467204286807
upperneck 19.464174959383694 -2.832693784201298 -0.19421691009604292
head 8.981643075241568 -1.4971466689552198 -0.07510108131450272
rclavicle 1.8627195579393428E-16 4.0210248742113433E-16
rhumerus -34.91611454384278 -22.901991121730177 -77.99806467059307
rradius 20.112461794712317
rwrist 6.204598704378886
rhand -18.155441895707824 25.101511116093185
rfingers 7.125020000000027
rthumb 8.117366934767041 -4.744335250419283
lclavicle -1.2601078024102753E-16 -3.2012011682957566E-16
lhumerus -26.648305305774464 -3.1031666662885207 80.26259280942125
lradius 31.67709859986321
lwrist 7.423070393010642
lhand -27.832271541843685 26.104580531319094
lfingers 7.125019999999997
lthumb -1.2468844787186217 56.1149192288306
rfemur -34.89362066386837 4.74574090604707 19.752483044793223
rtibia 28.296628133993874
rfoot -9.780305156399804 -12.647544566517885
rtoes -1.905298849160648
lfemur 8.369903867151397 -2.9434606201495255 -28.810026653244844
ltibia 19.698402350408163
lfoot -17.123776785812378 -0.6915994250394388
ltoes -2.561905468729069
53
root 0 0 0 -1.31184578944805 0.29701345084487274 2.484828349095761
lowerback 10.588915090401903 -1.377472360638619 -4.412766119507822
upperback 0.5586314038276132 -2.241785320952669 1.5368906746782764
thorax -5.184324654140618 -0.9949250662927063 4.385206454784736
lowerneck -17.66452418144127 -2.528315434653419 -2.2484027396809085
upperneck 19.544048304642267 -2.886625169488449 -0.1925083845266753
head 9.082288679920188 -1.516324835624534 -0.07979264379415257
rclavicle -6.900249076411186E-16 6.654306525156687E-16
rhumerus -35.225906594596495 -23.45208569562915 -77.7037340917532
rradius 19.6026829387023
rwrist 6.411835494218788
rhand -18.105413849135104 25.084222362791635
rfingers 7.125020000000025
rthumb 8.16553979122509 -4.750256107219581
lclavicle -1.1988312699593934E-15 -3.9405312607272377E-17
lhumerus -26.505550296253844 -3.3575807082803575 80.44645561681575
lradius 31.814354652516258
lwrist 7.490159409259164
lhand -27.841992259874083 25.990523801400233
lfingers 7.125019999999995
lthumb -1.2574717270835416 55.999465459968405
rfemur -33.65830232444113 5.701810785408493 20.33696516527484
rtibia 24.104523354079667
rfoot -9.86561985285982 -12.604734940064061
rtoes -2.635519638745105
lfemur 10.816288686604931 -3.2690767914263597 -28.472198813296448
ltibia 19.662462879387512
lfoot -14.808314468170893 -2.6187101193756956
ltoes -4.183786718523923
54
root 0 0 0 -1.4303638368692704 0.6449907406807842 1.5717226331465164
lowerback 10.358515664069113 -1.50571851931775 -3.694661112202003
upperback 0.37501693764645927 -2.308935117737045 1.8146218528193994
thorax -5.2458202224114014 -1.0440272143649694 4.2862821315088135
lowerneck -18.072682174963926 -2.4603033713083593 -2.2002739583784123
upperneck 20.04446912525813 -2.838140995676233 -0.2641089542646615
head 9.332177021612782 -1.4766783027742132 -0.11404347281486887
rclavicle -1.1208394581516652E-15 4.0259929190218454E-16
rhumerus -35.57826084998972 -24.0284950782232 -77.44729728951353
rradius 18.957295013179298
rwrist 7.000543244669182
rhand -18.017644448850717 25.146147964208474
rfingers 7.125020000000024
rthumb 8.24983997779141 -4.676822053556222
lclavicle -1.9888334362896335E-15 -2.8211208928805785E-16
lhumerus -26.830372513119567 -3.269247431254487 80.57524424374117
lradius 31.702895625597662
lwrist 7.493083747170656
lhand -27.831192871437622 25.93196337128444
lfingers 7.125019999999996
lthumb -1.2463973583106043 55.938596681728534
rfemur -31.077350852895968 5.995817207821165 20.86496418570928
rtibia 22.868284440305835
rfoot -9.336887651355902 -11.154117301207739
rtoes -1.3045351602571815
lfemur 13.19188806039244 -3.559425499653492 -28.043270898994926
ltibia 20.743651274830828
lfoot -11.868843283916306 -5.017049152582851
ltoes -6.192113438694065
55
root 0 0 0 -1.609564431296367 0.9267610600032405 -0.2765840320311459
lowerback 9.694221672663078 -1.663254618296881 -2.230106496868083
upperback 0.015268729949143231 -2.3234278006052715 2.3049812223412376
thorax -5.26208446575593 -1.0799865645584719 3.990964423704797
lowerneck -18.53476780621161 -2.2450686642095934 -2.022913906101671
upperneck 21.715341878970083 -2.643815708643249 -0.4381568604141244
head 9.995468723783496 -1.349079136859317 -0.19325205450344735
rclavicle -1.2539179819006322E-15 -2.8231460637703817E-16
rhumerus -35.89073775466848 -24.489838468022988 -77.27165321435814
rradius 18.387277404067596
rwrist 7.640340690411226
rhand -17.930738713974655 25.21875983670664
rfingers 7.125020000000022
rthumb 8.333290064290386 -4.594633720885568
lclavicle -2.6684613137508566E-15 -9.659858657363572E-16
lhumerus -27.527401371904702 -2.9866072235982064 80.8369908490977
lradius 31.402980908508543
lwrist 7.439526567726341
lhand -27.774266720364444 25.84665861927585
lfingers 7.125019999999999
lthumb -1.1882752544987945 55.84772173279801
rfemur -22.995336983272473 6.501155391291307 22.676868713656866
rtibia 20.606156601066573
rfoot -9.016254373107877 -7.697129293105981
rtoes 3.635561203535434
lfemur 15.278124063799481 -3.5123585874594863 -26.92449120736675
ltibia 27.689702938346834
lfoot -6.0831146871986785 -9.32701836442558
ltoes -8.743225560526394
